<mxfile host="app.diagrams.net" modified="2022-02-12T08:40:23.819Z" agent="5.0 (Macintosh; Intel Mac OS X 10_15_7) AppleWebKit/537.36 (KHTML, like Gecko) Chrome/98.0.4758.80 Safari/537.36" etag="D2-XI69-hkTzgNp0yKR5" version="16.5.5" type="github">
  <diagram id="bzQ0ejhN8QR2tleHYpqk" name="Page-1">
    <mxGraphModel dx="1106" dy="702" grid="1" gridSize="10" guides="1" tooltips="1" connect="1" arrows="1" fold="1" page="1" pageScale="1" pageWidth="827" pageHeight="1169" math="0" shadow="0">
      <root>
        <mxCell id="0" />
        <mxCell id="1" parent="0" />
        <mxCell id="zj8A5fJyveEYYcbx8cJl-1" value="" style="swimlane;startSize=0;" parent="1" vertex="1">
          <mxGeometry x="35" y="20" width="850" height="695" as="geometry" />
        </mxCell>
        <mxCell id="zj8A5fJyveEYYcbx8cJl-2" value="" style="rounded=0;whiteSpace=wrap;html=1;" parent="zj8A5fJyveEYYcbx8cJl-1" vertex="1">
          <mxGeometry x="9" y="40" width="831" height="56" as="geometry" />
        </mxCell>
        <mxCell id="zj8A5fJyveEYYcbx8cJl-3" value="" style="rounded=0;whiteSpace=wrap;html=1;" parent="zj8A5fJyveEYYcbx8cJl-1" vertex="1">
          <mxGeometry x="10" y="120" width="830" height="520" as="geometry" />
        </mxCell>
        <mxCell id="zj8A5fJyveEYYcbx8cJl-4" value="前端" style="text;html=1;strokeColor=none;fillColor=none;align=center;verticalAlign=middle;whiteSpace=wrap;rounded=0;" parent="zj8A5fJyveEYYcbx8cJl-1" vertex="1">
          <mxGeometry x="10" y="52" width="60" height="30" as="geometry" />
        </mxCell>
        <mxCell id="zj8A5fJyveEYYcbx8cJl-5" value="后端" style="text;html=1;strokeColor=none;fillColor=none;align=center;verticalAlign=middle;whiteSpace=wrap;rounded=0;" parent="zj8A5fJyveEYYcbx8cJl-1" vertex="1">
          <mxGeometry x="10" y="350" width="60" height="30" as="geometry" />
        </mxCell>
        <mxCell id="zj8A5fJyveEYYcbx8cJl-16" value="营销管理系统" style="text;html=1;strokeColor=none;fillColor=none;align=center;verticalAlign=middle;whiteSpace=wrap;rounded=0;fontStyle=1" parent="zj8A5fJyveEYYcbx8cJl-1" vertex="1">
          <mxGeometry x="362" width="75" height="30" as="geometry" />
        </mxCell>
        <mxCell id="zj8A5fJyveEYYcbx8cJl-21" value="" style="rounded=0;whiteSpace=wrap;html=1;" parent="zj8A5fJyveEYYcbx8cJl-1" vertex="1">
          <mxGeometry x="80" y="220" width="730" height="60" as="geometry" />
        </mxCell>
        <mxCell id="zj8A5fJyveEYYcbx8cJl-22" value="" style="rounded=0;whiteSpace=wrap;html=1;" parent="zj8A5fJyveEYYcbx8cJl-1" vertex="1">
          <mxGeometry x="80" y="310" width="730" height="130" as="geometry" />
        </mxCell>
        <mxCell id="zj8A5fJyveEYYcbx8cJl-23" value="" style="rounded=0;whiteSpace=wrap;html=1;" parent="zj8A5fJyveEYYcbx8cJl-1" vertex="1">
          <mxGeometry x="80" y="470" width="730" height="60" as="geometry" />
        </mxCell>
        <mxCell id="zj8A5fJyveEYYcbx8cJl-24" value="" style="rounded=0;whiteSpace=wrap;html=1;" parent="zj8A5fJyveEYYcbx8cJl-1" vertex="1">
          <mxGeometry x="80" y="550" width="730" height="60" as="geometry" />
        </mxCell>
        <mxCell id="zj8A5fJyveEYYcbx8cJl-26" value="网关 Gateway" style="text;html=1;strokeColor=none;fillColor=none;align=center;verticalAlign=middle;whiteSpace=wrap;rounded=0;" parent="zj8A5fJyveEYYcbx8cJl-1" vertex="1">
          <mxGeometry x="380.5" y="236" width="107.5" height="30" as="geometry" />
        </mxCell>
        <mxCell id="zj8A5fJyveEYYcbx8cJl-27" value="Redis 缓存" style="rounded=1;whiteSpace=wrap;html=1;" parent="zj8A5fJyveEYYcbx8cJl-1" vertex="1">
          <mxGeometry x="160" y="480" width="80" height="40" as="geometry" />
        </mxCell>
        <mxCell id="zj8A5fJyveEYYcbx8cJl-32" value="RabbitMQ &lt;br&gt;消息队列" style="rounded=1;whiteSpace=wrap;html=1;" parent="zj8A5fJyveEYYcbx8cJl-1" vertex="1">
          <mxGeometry x="270" y="480" width="80" height="40" as="geometry" />
        </mxCell>
        <mxCell id="zj8A5fJyveEYYcbx8cJl-33" value="XXL-JOB&lt;br&gt;任务调度" style="rounded=1;whiteSpace=wrap;html=1;" parent="zj8A5fJyveEYYcbx8cJl-1" vertex="1">
          <mxGeometry x="390" y="480" width="80" height="40" as="geometry" />
        </mxCell>
        <mxCell id="zj8A5fJyveEYYcbx8cJl-34" value="Nacos&lt;br&gt;配置/注册中心" style="rounded=1;whiteSpace=wrap;html=1;" parent="zj8A5fJyveEYYcbx8cJl-1" vertex="1">
          <mxGeometry x="510" y="480" width="80" height="40" as="geometry" />
        </mxCell>
        <mxCell id="zj8A5fJyveEYYcbx8cJl-35" value="EKK&lt;br&gt;日志收集" style="rounded=1;whiteSpace=wrap;html=1;" parent="zj8A5fJyveEYYcbx8cJl-1" vertex="1">
          <mxGeometry x="619" y="480" width="80" height="40" as="geometry" />
        </mxCell>
        <mxCell id="zj8A5fJyveEYYcbx8cJl-37" value="MySQL" style="rounded=1;whiteSpace=wrap;html=1;" parent="zj8A5fJyveEYYcbx8cJl-1" vertex="1">
          <mxGeometry x="270" y="560" width="80" height="40" as="geometry" />
        </mxCell>
        <mxCell id="zj8A5fJyveEYYcbx8cJl-38" value="S3" style="rounded=1;whiteSpace=wrap;html=1;" parent="zj8A5fJyveEYYcbx8cJl-1" vertex="1">
          <mxGeometry x="505" y="560" width="80" height="40" as="geometry" />
        </mxCell>
        <mxCell id="zj8A5fJyveEYYcbx8cJl-39" value="数据层" style="text;html=1;strokeColor=none;fillColor=none;align=center;verticalAlign=middle;whiteSpace=wrap;rounded=0;" parent="zj8A5fJyveEYYcbx8cJl-1" vertex="1">
          <mxGeometry x="82" y="565" width="60" height="30" as="geometry" />
        </mxCell>
        <mxCell id="zj8A5fJyveEYYcbx8cJl-41" value="中间件" style="text;html=1;strokeColor=none;fillColor=none;align=center;verticalAlign=middle;whiteSpace=wrap;rounded=0;" parent="zj8A5fJyveEYYcbx8cJl-1" vertex="1">
          <mxGeometry x="80" y="485" width="60" height="30" as="geometry" />
        </mxCell>
        <mxCell id="zj8A5fJyveEYYcbx8cJl-57" value="" style="verticalLabelPosition=bottom;verticalAlign=top;html=1;shape=mxgraph.basic.rect;fillColor2=none;strokeWidth=1;size=20;indent=5;" parent="zj8A5fJyveEYYcbx8cJl-1" vertex="1">
          <mxGeometry x="209" y="320" width="180" height="110" as="geometry" />
        </mxCell>
        <mxCell id="zj8A5fJyveEYYcbx8cJl-58" value="模板管理" style="rounded=1;whiteSpace=wrap;html=1;" parent="zj8A5fJyveEYYcbx8cJl-1" vertex="1">
          <mxGeometry x="246" y="350.5" width="110" height="30" as="geometry" />
        </mxCell>
        <mxCell id="zj8A5fJyveEYYcbx8cJl-62" value="配置服务" style="text;html=1;strokeColor=none;fillColor=none;align=center;verticalAlign=middle;whiteSpace=wrap;rounded=0;" parent="zj8A5fJyveEYYcbx8cJl-1" vertex="1">
          <mxGeometry x="245" y="320" width="110" height="30" as="geometry" />
        </mxCell>
        <mxCell id="zj8A5fJyveEYYcbx8cJl-63" value="应用服务" style="text;html=1;strokeColor=none;fillColor=none;align=center;verticalAlign=middle;whiteSpace=wrap;rounded=0;" parent="zj8A5fJyveEYYcbx8cJl-1" vertex="1">
          <mxGeometry x="81" y="360" width="60" height="30" as="geometry" />
        </mxCell>
        <mxCell id="uKLUNVmnaL445B_iEJsr-2" value="" style="verticalLabelPosition=bottom;verticalAlign=top;html=1;shape=mxgraph.basic.rect;fillColor2=none;strokeWidth=1;size=20;indent=5;" vertex="1" parent="zj8A5fJyveEYYcbx8cJl-1">
          <mxGeometry x="497" y="320" width="180" height="110" as="geometry" />
        </mxCell>
        <mxCell id="uKLUNVmnaL445B_iEJsr-3" value="数据源同步" style="rounded=1;whiteSpace=wrap;html=1;" vertex="1" parent="zj8A5fJyveEYYcbx8cJl-1">
          <mxGeometry x="532" y="347.5" width="110" height="30" as="geometry" />
        </mxCell>
        <mxCell id="uKLUNVmnaL445B_iEJsr-4" value="Feed 生成" style="rounded=1;whiteSpace=wrap;html=1;" vertex="1" parent="zj8A5fJyveEYYcbx8cJl-1">
          <mxGeometry x="532" y="390" width="110" height="30" as="geometry" />
        </mxCell>
        <mxCell id="uKLUNVmnaL445B_iEJsr-5" value="脚本服务" style="text;html=1;strokeColor=none;fillColor=none;align=center;verticalAlign=middle;whiteSpace=wrap;rounded=0;" vertex="1" parent="zj8A5fJyveEYYcbx8cJl-1">
          <mxGeometry x="532" y="320" width="110" height="30" as="geometry" />
        </mxCell>
        <mxCell id="uKLUNVmnaL445B_iEJsr-6" value="Feed 配置管理" style="rounded=1;whiteSpace=wrap;html=1;" vertex="1" parent="zj8A5fJyveEYYcbx8cJl-1">
          <mxGeometry x="246" y="390" width="110" height="30" as="geometry" />
        </mxCell>
        <mxCell id="uKLUNVmnaL445B_iEJsr-7" value="SkyWorking&lt;br&gt;服务追踪" style="rounded=1;whiteSpace=wrap;html=1;" vertex="1" parent="zj8A5fJyveEYYcbx8cJl-1">
          <mxGeometry x="724" y="480" width="80" height="40" as="geometry" />
        </mxCell>
        <mxCell id="zj8A5fJyveEYYcbx8cJl-11" value="" style="swimlane;startSize=0;" parent="1" vertex="1">
          <mxGeometry x="976" y="20" width="130" height="700" as="geometry" />
        </mxCell>
        <mxCell id="zj8A5fJyveEYYcbx8cJl-45" value="SSO" style="rounded=1;whiteSpace=wrap;html=1;" parent="zj8A5fJyveEYYcbx8cJl-11" vertex="1">
          <mxGeometry x="25" y="96" width="80" height="40" as="geometry" />
        </mxCell>
        <mxCell id="zj8A5fJyveEYYcbx8cJl-46" value="外部系统" style="text;html=1;strokeColor=none;fillColor=none;align=center;verticalAlign=middle;whiteSpace=wrap;rounded=0;fontStyle=1" parent="zj8A5fJyveEYYcbx8cJl-11" vertex="1">
          <mxGeometry x="27.5" width="75" height="30" as="geometry" />
        </mxCell>
        <mxCell id="zj8A5fJyveEYYcbx8cJl-47" value="MMS" style="rounded=1;whiteSpace=wrap;html=1;" parent="zj8A5fJyveEYYcbx8cJl-11" vertex="1">
          <mxGeometry x="25.5" y="220" width="80" height="40" as="geometry" />
        </mxCell>
        <mxCell id="zj8A5fJyveEYYcbx8cJl-48" value="PMS" style="rounded=1;whiteSpace=wrap;html=1;" parent="zj8A5fJyveEYYcbx8cJl-11" vertex="1">
          <mxGeometry x="24.5" y="335" width="80" height="40" as="geometry" />
        </mxCell>
        <mxCell id="zj8A5fJyveEYYcbx8cJl-51" value="API" style="rounded=1;whiteSpace=wrap;html=1;" parent="zj8A5fJyveEYYcbx8cJl-11" vertex="1">
          <mxGeometry x="27.5" y="460" width="80" height="40" as="geometry" />
        </mxCell>
        <mxCell id="zj8A5fJyveEYYcbx8cJl-18" value="" style="rounded=0;whiteSpace=wrap;html=1;" parent="1" vertex="1">
          <mxGeometry x="118" y="70" width="730" height="34" as="geometry" />
        </mxCell>
        <mxCell id="zj8A5fJyveEYYcbx8cJl-19" value="Nginx&lt;br&gt;（静态资源）" style="text;html=1;strokeColor=none;fillColor=none;align=center;verticalAlign=middle;whiteSpace=wrap;rounded=0;fontStyle=0" parent="1" vertex="1">
          <mxGeometry x="443.5" y="71" width="75" height="30" as="geometry" />
        </mxCell>
        <mxCell id="zj8A5fJyveEYYcbx8cJl-20" value="" style="rounded=0;whiteSpace=wrap;html=1;" parent="1" vertex="1">
          <mxGeometry x="116" y="154" width="730" height="60" as="geometry" />
        </mxCell>
        <mxCell id="zj8A5fJyveEYYcbx8cJl-25" value="ELB" style="text;html=1;strokeColor=none;fillColor=none;align=center;verticalAlign=middle;whiteSpace=wrap;rounded=0;" parent="1" vertex="1">
          <mxGeometry x="451" y="169" width="60" height="30" as="geometry" />
        </mxCell>
        <mxCell id="zj8A5fJyveEYYcbx8cJl-44" value="" style="shape=flexArrow;endArrow=classic;startArrow=classic;html=1;rounded=0;exitX=1;exitY=0.546;exitDx=0;exitDy=0;exitPerimeter=0;" parent="1" edge="1">
          <mxGeometry width="100" height="100" relative="1" as="geometry">
            <mxPoint x="903" y="347.47" as="sourcePoint" />
            <mxPoint x="953" y="347" as="targetPoint" />
          </mxGeometry>
        </mxCell>
        <mxCell id="zj8A5fJyveEYYcbx8cJl-49" value="API" style="text;html=1;strokeColor=none;fillColor=none;align=center;verticalAlign=middle;whiteSpace=wrap;rounded=0;fontStyle=1" parent="1" vertex="1">
          <mxGeometry x="891" y="300" width="75" height="30" as="geometry" />
        </mxCell>
      </root>
    </mxGraphModel>
  </diagram>
</mxfile>
